<svg width="24" height="24" viewBox="0 0 24 24" fill="none" xmlns="http://www.w3.org/2000/svg">
<path d="M15 12C15 13.6569 13.6569 15 12 15C10.3431 15 9 13.6569 9 12C9 10.3431 10.3431 9 12 9C13.6569 9 15 10.3431 15 12Z" fill="#4D94FF"/>
<path fill-rule="evenodd" clip-rule="evenodd" d="M20.6617 17.0008L16.3339 14.4968C16.7565 13.7663 17 12.9192 17 12C17 11.0808 16.7565 10.2337 16.3339 9.50323L20.6617 6.9992C21.5129 8.47025 22 10.1782 22 12C22 13.8218 21.5129 15.5297 20.6617 17.0008ZM17.0008 3.33828L14.4968 7.66608C13.7663 7.24346 12.9192 7 12 7C11.0808 7 10.2337 7.24346 9.50323 7.66608L6.9992 3.33828C8.47025 2.48715 10.1782 2 12 2C13.8218 2 15.5297 2.48715 17.0008 3.33828ZM3.33828 6.9992C2.48715 8.47025 2 10.1782 2 12C2 13.8218 2.48715 15.5298 3.33828 17.0008L7.66608 14.4968C7.24346 13.7663 7 12.9192 7 12C7 11.0808 7.24346 10.2337 7.66608 9.50323L3.33828 6.9992ZM6.9992 20.6617L9.50323 16.3339C10.2337 16.7565 11.0808 17 12 17C12.9192 17 13.7663 16.7565 14.4968 16.3339L17.0008 20.6617C15.5298 21.5129 13.8218 22 12 22C10.1782 22 8.47025 21.5129 6.9992 20.6617Z" fill="#4D94FF"/>
</svg>
