<svg width="24" height="24" viewBox="0 0 24 24" fill="none" xmlns="http://www.w3.org/2000/svg">
<path d="M20.4764 6.13895C20.6024 6.18482 20.9753 6.52233 20.9868 6.65624C21.0887 7.83692 20.6668 8.99403 19.8305 9.83074C18.7189 10.9421 17.1116 11.2606 15.7148 10.7888L6.05224 20.5128C5.70839 20.8333 5.2536 21.0077 4.78368 20.9994C4.31376 20.9911 3.8654 20.8007 3.53306 20.4684C3.20073 20.1361 3.01036 19.6877 3.00207 19.2178C2.99378 18.7479 3.16821 18.2931 3.48861 17.9492L13.1952 8.23313C12.7494 6.84888 13.0742 5.26845 14.1711 4.17144C15.0076 3.3348 16.1646 2.9132 17.3455 3.01493C17.4797 3.02654 17.8386 3.3491 17.8849 3.47545C17.9308 3.60155 17.8997 3.74298 17.8046 3.83804L15.8602 5.78241L16.4526 7.56704L18.1693 8.16331L20.1137 6.21909C20.2087 6.12422 20.3501 6.0928 20.4764 6.13895Z" fill="#999999"/>
<path d="M18.219 20.9997C17.749 21.008 17.2942 20.8336 16.9504 20.5132L12.7959 16.4172C12.5983 16.2223 12.5972 15.9038 12.7934 15.7076L14.6499 13.8511C14.8442 13.6568 15.1588 13.6557 15.3545 13.8486L19.514 17.9495C19.8344 18.2934 20.0088 18.7482 20.0005 19.2181C19.9922 19.688 19.8019 20.1364 19.4696 20.4687C19.1372 20.8011 18.6889 20.9914 18.219 20.9997Z" fill="#999999"/>
<path d="M5.92185 4.5468L7.36271 7.33035L9.37701 9.23462C9.58167 9.4281 9.58622 9.75236 9.38707 9.95151L8.61359 10.725C8.41472 10.9239 8.091 10.9196 7.89739 10.7157L5.98675 8.70265L3.20887 7.26109L2.34984 5.27888C2.26826 5.09065 2.30994 4.87169 2.45497 4.72659L3.34022 3.84091C3.48164 3.69943 3.69377 3.65585 3.87951 3.73012L5.92185 4.5468Z" fill="#999999"/>
</svg>
