<svg width="25" height="24" viewBox="0 0 25 24" fill="none" xmlns="http://www.w3.org/2000/svg">
<path fill-rule="evenodd" clip-rule="evenodd" d="M11.1591 3.07062C12.0037 2.64833 12.9978 2.64833 13.8424 3.07062L19.7008 5.9998V14.0278C19.7008 16.7998 17.1384 18.671 12.5008 21.5998C7.86318 18.671 5.30078 16.1998 5.30078 14.0278V5.9998L11.1591 3.07062ZM13.5008 8.18734C13.5008 7.63506 13.0531 7.18734 12.5008 7.18734C11.9485 7.18734 11.5008 7.63506 11.5008 8.18734V9.88748H9.80078C9.2485 9.88748 8.80078 10.3352 8.80078 10.8875C8.80078 11.4398 9.2485 11.8875 9.80078 11.8875H11.5008V13.5873C11.5008 14.1396 11.9485 14.5873 12.5008 14.5873C13.0531 14.5873 13.5008 14.1396 13.5008 13.5873V11.8875H15.2008C15.7531 11.8875 16.2008 11.4398 16.2008 10.8875C16.2008 10.3352 15.7531 9.88748 15.2008 9.88748H13.5008V8.18734Z" fill="#999999"/>
</svg>
