<svg width="24" height="24" viewBox="0 0 24 24" fill="none" xmlns="http://www.w3.org/2000/svg">
<path fill-rule="evenodd" clip-rule="evenodd" d="M20.4016 7.74305C20.4016 7.3553 20.1961 6.99701 19.8627 6.80313L12.5404 2.5458C12.207 2.35192 11.7961 2.35192 11.4627 2.5458L4.14042 6.80313C3.80697 6.99701 3.60156 7.3553 3.60156 7.74305V16.2577C3.60156 16.6455 3.80698 17.0038 4.14042 17.1976L11.4627 21.455C11.7962 21.6489 12.207 21.6489 12.5404 21.455L19.8627 17.1976C20.1961 17.0038 20.4016 16.6455 20.4016 16.2577V7.74305ZM12.0016 15.2564C13.7872 15.2564 15.2347 13.7986 15.2347 12.0004C15.2347 10.2022 13.7872 8.74442 12.0016 8.74442C10.2159 8.74442 8.7684 10.2022 8.7684 12.0004C8.7684 13.7986 10.2159 15.2564 12.0016 15.2564Z" fill="#999999"/>
</svg>
