<svg width="24" height="24" viewBox="0 0 24 24" fill="none" xmlns="http://www.w3.org/2000/svg">
<path fill-rule="evenodd" clip-rule="evenodd" d="M17.9984 2.40039C19.9867 2.40039 21.5984 4.01217 21.5984 6.00039L21.5984 18.0005C21.5984 19.9887 19.9867 21.6005 17.9984 21.6005H5.99844C4.01021 21.6005 2.39844 19.9887 2.39844 18.0005V6.00039C2.39844 4.01217 4.01021 2.40039 5.99844 2.40039H17.9984ZM17.0477 10.4489C17.5164 9.98029 17.5164 9.22049 17.0477 8.75186C16.5791 8.28323 15.8193 8.28323 15.3507 8.75186L10.7992 13.3033L9.24775 11.7519C8.77912 11.2832 8.01932 11.2832 7.55069 11.7519C7.08206 12.2205 7.08206 12.9803 7.55069 13.4489L9.95069 15.8489C10.4193 16.3175 11.1791 16.3175 11.6477 15.8489L17.0477 10.4489Z" fill="#E6E6E6"/>
<path d="M17.0477 8.75186C17.5164 9.22049 17.5164 9.98029 17.0477 10.4489L11.6477 15.8489C11.1791 16.3175 10.4193 16.3175 9.95069 15.8489L7.55069 13.4489C7.08206 12.9803 7.08206 12.2205 7.55069 11.7519C8.01932 11.2832 8.77912 11.2832 9.24775 11.7519L10.7992 13.3033L15.3507 8.75186C15.8193 8.28323 16.5791 8.28323 17.0477 8.75186Z" fill="#4D94FF"/>
</svg>
