<svg width="36" height="36" viewBox="0 0 36 36" fill="none" xmlns="http://www.w3.org/2000/svg">
<rect width="36" height="36" rx="8" fill="white"/>
<path fill-rule="evenodd" clip-rule="evenodd" d="M10.9393 10.9393C11.5251 10.3536 12.4749 10.3536 13.0607 10.9393L18 15.8787L22.9393 10.9393C23.5251 10.3536 24.4749 10.3536 25.0607 10.9393C25.6464 11.5251 25.6464 12.4749 25.0607 13.0607L20.1213 18L25.0607 22.9393C25.6464 23.5251 25.6464 24.4749 25.0607 25.0607C24.4749 25.6464 23.5251 25.6464 22.9393 25.0607L18 20.1213L13.0607 25.0607C12.4749 25.6464 11.5251 25.6464 10.9393 25.0607C10.3536 24.4749 10.3536 23.5251 10.9393 22.9393L15.8787 18L10.9393 13.0607C10.3536 12.4749 10.3536 11.5251 10.9393 10.9393Z" fill="#121212"/>
</svg>
