<svg width="24" height="24" viewBox="0 0 24 24" fill="none" xmlns="http://www.w3.org/2000/svg">
<path d="M12.0008 2.40039C9.00935 2.40039 6.60078 4.84719 6.60078 7.88611V8.80039C5.61078 8.80039 4.80078 9.62325 4.80078 10.629V19.7718C4.80078 20.7775 5.61078 21.6004 6.60078 21.6004H17.4008C18.3908 21.6004 19.2008 20.7775 19.2008 19.7718V10.629C19.2008 9.62325 18.3908 8.80039 17.4008 8.80039V7.88611C17.4008 4.84719 14.9922 2.40039 12.0008 2.40039ZM12.0008 4.22896C14.0494 4.22896 15.6008 5.80502 15.6008 7.88611V8.80039H8.40078V7.88611C8.40078 5.80502 9.95221 4.22896 12.0008 4.22896ZM12.0008 13.3718C12.9908 13.3718 13.8008 14.1947 13.8008 15.2004C13.8008 16.2061 12.9908 17.029 12.0008 17.029C11.0108 17.029 10.2008 16.2061 10.2008 15.2004C10.2008 14.1947 11.0108 13.3718 12.0008 13.3718Z" fill="#4D94FF"/>
</svg>
