<svg width="20" height="20" viewBox="0 0 20 20" fill="none" xmlns="http://www.w3.org/2000/svg">
<path fill-rule="evenodd" clip-rule="evenodd" d="M5.20039 0.400391C2.54942 0.400391 0.400391 2.54942 0.400391 5.20039V14.8004C0.400391 17.4514 2.54942 19.6004 5.20039 19.6004H14.8004C17.4514 19.6004 19.6004 17.4514 19.6004 14.8004V5.20039C19.6004 2.54942 17.4514 0.400391 14.8004 0.400391H5.20039ZM14.2426 5.75778C14.7113 6.22641 14.7113 6.9862 14.2426 7.45483L12.1213 9.57615C11.887 9.81047 11.887 10.1904 12.1213 10.4247L14.2426 12.546C14.7113 13.0146 14.7113 13.7744 14.2426 14.2431C13.774 14.7117 13.0142 14.7117 12.5456 14.2431L10.4243 12.1217C10.1899 11.8874 9.81005 11.8874 9.57574 12.1217L7.45442 14.2431C6.98579 14.7117 6.22599 14.7117 5.75736 14.2431C5.28873 13.7744 5.28873 13.0146 5.75736 12.546L7.87868 10.4247C8.11299 10.1904 8.11299 9.81047 7.87868 9.57615L5.75736 7.45483C5.28873 6.9862 5.28873 6.22641 5.75736 5.75778C6.22599 5.28915 6.98579 5.28915 7.45442 5.75778L9.57574 7.8791C9.81005 8.11341 10.1899 8.11341 10.4243 7.8791L12.5456 5.75778C13.0142 5.28915 13.774 5.28915 14.2426 5.75778Z" fill="#4D94FF"/>
</svg>
